# xmcd
#
# Track frame offsets: 
#        150
#        25349
#        48130
#        72273
#        90148
#        116960
#        137993
#        165408
#        188557
#        227603
#        246573
#        281465
#
# Disc length: 3951 seconds
#
# Revision: 1
# Processed by: cddbd v1.5.2PL0 Copyright (c) Steve Scherf et al.
# Submitted via: ExactAudioCopy v1.0b4
#
DISCID=9d0f6d0c
DTITLE=The Mick Fleetwood Blues Band and Rick Vito - Blue Again
DYEAR=2009
DGENRE=Blues Rock
TTITLE0=Red Hot Gal
TTITLE1=Looking For Somebody
TTITLE2=Fleetwood Boogie
TTITLE3=Stop Messin' Around
TTITLE4=Rattlesnake Shake
TTITLE5=When Do We Do The Lucky Devil
TTITLE6=Love That Burns
TTITLE7=Medley: Rollin' Man - Bayou Queen
TTITLE8=Black Magic Woman
TTITLE9=I Got A Hole In My Shoe
TTITLE10=Shake Your Moneymaker
TTITLE11=Albatross
EXTD=
EXTT0=
EXTT1=
EXTT2=
EXTT3=
EXTT4=
EXTT5=
EXTT6=
EXTT7=
EXTT8=
EXTT9=
EXTT10=
EXTT11=
PLAYORDER=
